<?xml version="1.0" encoding="UTF-8" standalone="no"?>
<!-- Generator: Adobe Illustrator 22.1.0, SVG Export Plug-In . SVG Version: 6.00 Build 0)  -->

<svg
   xmlns:dc="http://purl.org/dc/elements/1.1/"
   xmlns:cc="http://creativecommons.org/ns#"
   xmlns:rdf="http://www.w3.org/1999/02/22-rdf-syntax-ns#"
   xmlns:svg="http://www.w3.org/2000/svg"
   xmlns="http://www.w3.org/2000/svg"
   xmlns:sodipodi="http://sodipodi.sourceforge.net/DTD/sodipodi-0.dtd"
   xmlns:inkscape="http://www.inkscape.org/namespaces/inkscape"
   version="1.1"
   id="Layer_3"
   x="0px"
   y="0px"
   viewBox="0 0 511.48495 800"
   xml:space="preserve"
   sodipodi:docname="Necrons [Yngir, Necrontyr].svg"
   width="511.48495"
   height="800"
   inkscape:version="0.92.3 (2405546, 2018-03-11)"><metadata
   id="metadata13"><rdf:RDF><cc:Work
       rdf:about=""><dc:format>image/svg+xml</dc:format><dc:type
         rdf:resource="http://purl.org/dc/dcmitype/StillImage" /><dc:title></dc:title></cc:Work></rdf:RDF></metadata><defs
   id="defs11" /><sodipodi:namedview
   pagecolor="#ffffff"
   bordercolor="#666666"
   borderopacity="1"
   objecttolerance="10"
   gridtolerance="10"
   guidetolerance="10"
   inkscape:pageopacity="0"
   inkscape:pageshadow="2"
   inkscape:window-width="1920"
   inkscape:window-height="1017"
   id="namedview9"
   showgrid="false"
   fit-margin-top="0"
   fit-margin-left="0"
   fit-margin-right="0"
   fit-margin-bottom="0"
   inkscape:pagecheckerboard="true"
   inkscape:zoom="0.236"
   inkscape:cx="-219.54237"
   inkscape:cy="481"
   inkscape:window-x="-8"
   inkscape:window-y="-8"
   inkscape:window-maximized="1"
   inkscape:current-layer="Layer_3" />
<g
   id="g6"
   transform="matrix(0.83073728,0,0,0.83073728,-159.50156,-14.953271)">
	<circle
   cx="499.79999"
   cy="387.39999"
   r="86.800003"
   id="circle2" />
	<path
   d="M 618.2,18 H 381.4 L 192,324.3 354.6,981 H 645.1 L 807.7,324.3 Z M 697,562.8 660.2,599.6 560.6,500 c -11,5.9 -22.9,10.3 -35.5,12.8 V 903.7 H 473 V 512.4 c -12.1,-2.6 -23.6,-6.9 -34.2,-12.7 L 339,599.6 302.2,562.8 399,466 C 387,450.7 378.5,432.5 374.5,412.7 H 274.1 v -52.1 h 100.7 c 10.5,-49.1 49.1,-87.7 98.2,-98.2 v -42 C 415.3,208.1 372,156.8 372,95.4 h 41 c 0,48 38.9,86.8 86.8,86.8 47.9,0 86.8,-38.9 86.8,-86.8 h 41 c 0,62 -44.1,113.6 -102.6,125.4 V 262 c 49.8,10 89.2,48.9 99.8,98.5 h 105.5 v 52.1 H 625.2 c -4,19.9 -12.6,38.2 -24.7,53.6 z"
   id="path4"
   inkscape:connector-curvature="0" />
</g>
</svg>