<?xml version="1.0" encoding="UTF-8" standalone="no"?>
<!-- Generator: Adobe Illustrator 21.0.2, SVG Export Plug-In . SVG Version: 6.00 Build 0)  -->

<svg
   xmlns:dc="http://purl.org/dc/elements/1.1/"
   xmlns:cc="http://creativecommons.org/ns#"
   xmlns:rdf="http://www.w3.org/1999/02/22-rdf-syntax-ns#"
   xmlns:svg="http://www.w3.org/2000/svg"
   xmlns="http://www.w3.org/2000/svg"
   xmlns:sodipodi="http://sodipodi.sourceforge.net/DTD/sodipodi-0.dtd"
   xmlns:inkscape="http://www.inkscape.org/namespaces/inkscape"
   version="1.1"
   id="Layer_3"
   x="0px"
   y="0px"
   viewBox="0 0 803.20683 800.00002"
   xml:space="preserve"
   sodipodi:docname="Slaanesh [Chaos, Chaos Daemons].svg"
   width="803.20685"
   height="800"
   inkscape:version="0.92.3 (2405546, 2018-03-11)"><metadata
   id="metadata9"><rdf:RDF><cc:Work
       rdf:about=""><dc:format>image/svg+xml</dc:format><dc:type
         rdf:resource="http://purl.org/dc/dcmitype/StillImage" /><dc:title></dc:title></cc:Work></rdf:RDF></metadata><defs
   id="defs7" /><sodipodi:namedview
   pagecolor="#ffffff"
   bordercolor="#666666"
   borderopacity="1"
   objecttolerance="10"
   gridtolerance="10"
   guidetolerance="10"
   inkscape:pageopacity="0"
   inkscape:pageshadow="2"
   inkscape:window-width="1920"
   inkscape:window-height="1017"
   id="namedview5"
   showgrid="false"
   fit-margin-top="0"
   fit-margin-left="0"
   fit-margin-right="0"
   fit-margin-bottom="0"
   inkscape:pagecheckerboard="true"
   inkscape:zoom="0.25264962"
   inkscape:cx="-23.827305"
   inkscape:cy="467.05001"
   inkscape:window-x="-8"
   inkscape:window-y="-8"
   inkscape:window-maximized="1"
   inkscape:current-layer="Layer_3" />
<path
   d="m 803.16883,130.43571 c -10.61985,26.46398 -36.48432,45.13436 -66.80227,45.13436 -39.73879,0 -71.94091,-32.20212 -71.94091,-71.94091 0,-39.73878 32.20212,-71.9409 71.94091,-71.9409 8.82132,0 17.38571,1.62723 25.17931,4.53912 C 737.8225,13.78867 705.79167,0 670.50637,0 c -73.31121,0 -132.7481,59.43689 -132.7481,132.7481 0,16.35799 2.91189,31.94519 8.30746,46.41901 -0.25693,-0.0856 -0.34257,-0.17129 -0.34257,-0.17129 l -49.58784,49.67349 C 445.17718,193.72658 383.4279,173.17204 316.9682,173.17204 c -109.28166,0 -205.63108,55.32598 -262.669945,139.42832 50.358635,-35.02837 111.508405,-55.49727 177.454235,-55.49727 66.71662,0 128.63719,21.06841 179.25276,56.86758 l -57.12451,57.21015 C 318.42415,349.17032 276.54427,336.40938 231.75249,336.40938 103.80045,336.40938 0,440.20983 0,568.24751 0,696.28519 103.80045,800 231.75249,800 c 127.95204,0 231.75249,-103.80045 231.75249,-231.75249 0,-40.68087 -10.53421,-78.87806 -28.86201,-112.10791 v 0 c 0,0 24.92239,-24.49417 58.06659,-57.21015 31.68826,48.7314 50.1017,106.88363 50.1017,169.31806 0,75.88053 -27.14913,145.4234 -72.28348,199.37908 97.4628,-54.04132 163.49427,-158.01306 163.49427,-277.4007 0,-65.77455 -20.04068,-126.92432 -54.3839,-177.53988 20.12633,-20.04068 38.53978,-38.62542 52.32845,-52.84231 12.16144,3.68269 25.09367,5.6525 38.45413,5.6525 73.3112,0 132.7481,-59.43689 132.7481,-132.7481 0.0856,-0.7708 0,-1.54159 0,-2.31239 z"
   id="path2"
   inkscape:connector-curvature="0"
   style="stroke-width:0.85643935" />
</svg>