<?xml version="1.0" encoding="UTF-8" standalone="no"?>
<!-- Generator: Adobe Illustrator 21.0.2, SVG Export Plug-In . SVG Version: 6.00 Build 0)  -->

<svg
   xmlns:dc="http://purl.org/dc/elements/1.1/"
   xmlns:cc="http://creativecommons.org/ns#"
   xmlns:rdf="http://www.w3.org/1999/02/22-rdf-syntax-ns#"
   xmlns:svg="http://www.w3.org/2000/svg"
   xmlns="http://www.w3.org/2000/svg"
   xmlns:sodipodi="http://sodipodi.sourceforge.net/DTD/sodipodi-0.dtd"
   xmlns:inkscape="http://www.inkscape.org/namespaces/inkscape"
   version="1.1"
   id="arrows"
   x="0px"
   y="0px"
   viewBox="0 0 833.07203 800.00001"
   xml:space="preserve"
   sodipodi:docname="Nurgle [Chaos, Chaos Daemons].svg"
   width="833.07202"
   height="800"
   inkscape:version="0.92.3 (2405546, 2018-03-11)"><metadata
   id="metadata9"><rdf:RDF><cc:Work
       rdf:about=""><dc:format>image/svg+xml</dc:format><dc:type
         rdf:resource="http://purl.org/dc/dcmitype/StillImage" /><dc:title></dc:title></cc:Work></rdf:RDF></metadata><defs
   id="defs7" /><sodipodi:namedview
   pagecolor="#ffffff"
   bordercolor="#666666"
   borderopacity="1"
   objecttolerance="10"
   gridtolerance="10"
   guidetolerance="10"
   inkscape:pageopacity="0"
   inkscape:pageshadow="2"
   inkscape:window-width="1920"
   inkscape:window-height="1017"
   id="namedview5"
   showgrid="false"
   fit-margin-top="0"
   fit-margin-left="0"
   fit-margin-right="0"
   fit-margin-bottom="0"
   inkscape:pagecheckerboard="true"
   inkscape:zoom="0.25340922"
   inkscape:cx="-6.4002115"
   inkscape:cy="465.65001"
   inkscape:window-x="-8"
   inkscape:window-y="-8"
   inkscape:window-maximized="1"
   inkscape:current-layer="arrows" />
<path
   d="m 744.50768,524.25642 -85.90143,-73.61753 -0.34361,-0.2577 c 83.06668,-13.57243 146.46194,-85.72963 146.46194,-172.66187 0,-96.63911 -78.3421,-174.98121 -174.98121,-174.98121 -64.59787,0 -121.03511,35.04778 -151.35832,87.18995 l -4.63867,-76.79588 28.60517,5.41179 L 413.18587,0 321.78675,127.47772 350.39193,117.25545 c 0,0 -1.54623,50.42414 -3.26426,66.74541 -31.69763,-42.43531 -82.29357,-69.92376 -139.33212,-69.92376 -95.95189,0 -173.778584,77.82669 -173.778584,173.77859 0,89.59519 67.776224,163.29861 154.880274,172.74777 L 101.53549,509.99678 83.839794,453.38774 0,678.36358 l 191.56018,-0.68721 -21.13175,-43.63793 54.63331,-39.51466 c 0,1.20262 -0.0859,2.49115 -0.0859,3.69377 0,111.41415 90.2824,201.78245 201.78245,201.78245 99.90337,0 182.79824,-72.58671 198.86181,-167.93729 l 45.18415,34.70417 -32.72844,29.29239 194.99624,34.10287 -66.1441,-279.52325 z M 629.82927,165.10254 c 62.19263,0 112.61677,50.42414 112.61677,112.61678 0,62.19263 -50.42414,112.61677 -112.61677,112.61677 -62.19263,0 -112.70267,-50.33824 -112.70267,-112.53087 0,-62.19264 50.42414,-112.70268 112.70267,-112.70268 z M 86.846344,287.85569 c 0,-66.83132 54.203796,-121.03512 121.035116,-121.03512 66.83131,0 121.03511,54.2038 121.03511,121.03512 0,66.83131 -54.2897,121.03511 -121.12102,121.03511 -66.83131,0 -120.949206,-54.2038 -120.949206,-121.03511 z M 428.04682,741.50113 c -77.31129,0 -139.93343,-62.62214 -139.93343,-139.93343 0,-77.31128 62.62214,-139.93343 139.93343,-139.93343 77.31128,0 139.93342,62.62215 139.93342,139.93343 0,77.31129 -62.62214,139.93343 -139.93342,139.93343 z"
   id="path2"
   inkscape:connector-curvature="0"
   style="stroke-width:0.85901427" />
</svg>