<?xml version="1.0" encoding="UTF-8" standalone="no"?>
<!-- Created with Inkscape (http://www.inkscape.org/) -->

<svg
   xmlns:dc="http://purl.org/dc/elements/1.1/"
   xmlns:cc="http://creativecommons.org/ns#"
   xmlns:rdf="http://www.w3.org/1999/02/22-rdf-syntax-ns#"
   xmlns:svg="http://www.w3.org/2000/svg"
   xmlns="http://www.w3.org/2000/svg"
   xmlns:sodipodi="http://sodipodi.sourceforge.net/DTD/sodipodi-0.dtd"
   xmlns:inkscape="http://www.inkscape.org/namespaces/inkscape"
   width="800"
   height="800"
   viewBox="0 0 211.66667 211.66667"
   version="1.1"
   id="svg8"
   inkscape:version="0.92.3 (2405546, 2018-03-11)"
   sodipodi:docname="Heretic Astartes [Chaos, Chaos Space Marines].svg">
  <defs
     id="defs2">
    <pattern
       y="0"
       x="0"
       height="6"
       width="6"
       patternUnits="userSpaceOnUse"
       id="EMFhbasepattern" />
  </defs>
  <sodipodi:namedview
     id="base"
     pagecolor="#ffffff"
     bordercolor="#666666"
     borderopacity="1.0"
     inkscape:pageopacity="0.0"
     inkscape:pageshadow="2"
     inkscape:zoom="0.70000002"
     inkscape:cx="-207.15847"
     inkscape:cy="485.29068"
     inkscape:document-units="px"
     inkscape:current-layer="layer1"
     showgrid="false"
     fit-margin-top="0"
     fit-margin-left="0"
     fit-margin-right="0"
     fit-margin-bottom="0"
     inkscape:pagecheckerboard="true"
     inkscape:window-width="1920"
     inkscape:window-height="1017"
     inkscape:window-x="-8"
     inkscape:window-y="-8"
     inkscape:window-maximized="1"
     units="px" />
  <metadata
     id="metadata5">
    <rdf:RDF>
      <cc:Work
         rdf:about="">
        <dc:format>image/svg+xml</dc:format>
        <dc:type
           rdf:resource="http://purl.org/dc/dcmitype/StillImage" />
        <dc:title></dc:title>
      </cc:Work>
    </rdf:RDF>
  </metadata>
  <g
     inkscape:label="Layer 1"
     inkscape:groupmode="layer"
     id="layer1"
     transform="translate(-37.735163,-24.163893)">
    <path
       style="fill:#000000;fill-opacity:1;fill-rule:evenodd;stroke:none;stroke-width:0.41581133"
       d="m 143.5819,24.163893 -21.4687,21.223439 h 11.93021 v 61.578258 l -21.75376,-21.752953 8.43805,-8.438046 -30.191798,0.190037 -0.16324,30.165012 8.411244,-8.411254 21.734264,21.726954 H 58.958601 v -11.9026 l -21.223438,21.44109 21.223438,21.46788 v -11.9026 h 61.578259 l -21.73996,21.73996 -8.424238,-8.42425 0.16324,30.1642 30.191798,0.19084 -8.43805,-8.43804 21.75376,-21.75376 v 61.57826 H 122.1132 l 21.4687,21.22424 21.46789,-21.22424 h -11.92941 v -61.57014 l 21.75295,21.74564 -8.43724,8.43804 30.19181,-0.19084 0.16242,-30.1642 -8.42424,8.42425 -21.73913,-21.73996 h 61.55064 v 11.9026 l 21.22424,-21.46788 -21.22424,-21.44109 v 11.9026 h -61.55146 l 21.72696,-21.726954 8.43723,8.438054 -0.19003,-30.191812 -30.1642,-0.162423 8.42425,8.423426 -21.73996,21.739959 V 45.387332 h 11.92941 z"
       id="path818"
       inkscape:connector-curvature="0" />
  </g>
</svg>
