<?xml version="1.0" encoding="UTF-8" standalone="no"?>
<!-- Generator: Adobe Illustrator 21.0.2, SVG Export Plug-In . SVG Version: 6.00 Build 0)  -->

<svg
   xmlns:dc="http://purl.org/dc/elements/1.1/"
   xmlns:cc="http://creativecommons.org/ns#"
   xmlns:rdf="http://www.w3.org/1999/02/22-rdf-syntax-ns#"
   xmlns:svg="http://www.w3.org/2000/svg"
   xmlns="http://www.w3.org/2000/svg"
   xmlns:sodipodi="http://sodipodi.sourceforge.net/DTD/sodipodi-0.dtd"
   xmlns:inkscape="http://www.inkscape.org/namespaces/inkscape"
   version="1.1"
   id="Layer_2"
   x="0px"
   y="0px"
   viewBox="0 0 713.57599 800"
   xml:space="preserve"
   sodipodi:docname="Khorne [Chaos, Chaos Daemons].svg"
   width="713.57599"
   height="800"
   inkscape:version="0.92.3 (2405546, 2018-03-11)"><metadata
   id="metadata11"><rdf:RDF><cc:Work
       rdf:about=""><dc:format>image/svg+xml</dc:format><dc:type
         rdf:resource="http://purl.org/dc/dcmitype/StillImage" /><dc:title></dc:title></cc:Work></rdf:RDF></metadata><defs
   id="defs9" /><sodipodi:namedview
   pagecolor="#ffffff"
   bordercolor="#666666"
   borderopacity="1"
   objecttolerance="10"
   gridtolerance="10"
   guidetolerance="10"
   inkscape:pageopacity="0"
   inkscape:pageshadow="2"
   inkscape:window-width="1920"
   inkscape:window-height="1017"
   id="namedview7"
   showgrid="false"
   fit-margin-top="0"
   fit-margin-left="0"
   fit-margin-right="0"
   fit-margin-bottom="0"
   inkscape:pagecheckerboard="true"
   inkscape:zoom="0.27267475"
   inkscape:cx="-70.587924"
   inkscape:cy="432.75"
   inkscape:window-x="-8"
   inkscape:window-y="-8"
   inkscape:window-maximized="1"
   inkscape:current-layer="Layer_2" />
<path
   d="M 713.02137,678.91392 V 541.0052 l -0.36972,-0.36973 -122.0104,-141.14385 h 122.0104 V 253.8186 H 480.46216 L 573.91103,145.67302 H 712.65165 V 0 H 452.3628 L 353.55286,114.43096 257.88562,0 H 0 V 145.67302 H 133.74928 L 227.19815,253.8186 H 0 V 399.49162 H 122.0104 L 1.571346,538.78683 H 0 V 678.91392 703.8706 800 h 93.171577 v -95.85211 l 61.559793,0.18487 v 95.57481 h 93.17158 v -95.29752 l 61.55979,0.18487 v 95.11265 h 93.17158 v -94.74293 l 61.55979,0.18487 V 800 h 93.17157 v -94.37319 l 60.17331,0.18486 V 800 h 96.03698 l -0.64703,-93.91103 h 0.0924 v -2.21837 l 0.5546,-24.95668 z M 219.61872,539.52629 354.47718,390.24841 493.77239,540.35817 Z"
   id="path2"
   inkscape:connector-curvature="0"
   style="stroke-width:0.92432117" />
<path
   d="M 493.77239,540.35817"
   id="path4"
   inkscape:connector-curvature="0"
   style="stroke-width:0.92432117" />
</svg>