<?xml version="1.0" encoding="UTF-8" standalone="no"?>
<!-- Generator: Adobe Illustrator 21.0.2, SVG Export Plug-In . SVG Version: 6.00 Build 0)  -->

<svg
   xmlns:dc="http://purl.org/dc/elements/1.1/"
   xmlns:cc="http://creativecommons.org/ns#"
   xmlns:rdf="http://www.w3.org/1999/02/22-rdf-syntax-ns#"
   xmlns:svg="http://www.w3.org/2000/svg"
   xmlns="http://www.w3.org/2000/svg"
   xmlns:sodipodi="http://sodipodi.sourceforge.net/DTD/sodipodi-0.dtd"
   xmlns:inkscape="http://www.inkscape.org/namespaces/inkscape"
   version="1.1"
   id="Layer_2"
   x="0px"
   y="0px"
   viewBox="0 0 746.91741 799.99999"
   xml:space="preserve"
   sodipodi:docname="Tzeentch [Chaos, Chaos Daemons].svg"
   width="746.91742"
   height="800"
   inkscape:version="0.92.3 (2405546, 2018-03-11)"><metadata
   id="metadata15"><rdf:RDF><cc:Work
       rdf:about=""><dc:format>image/svg+xml</dc:format><dc:type
         rdf:resource="http://purl.org/dc/dcmitype/StillImage" /><dc:title></dc:title></cc:Work></rdf:RDF></metadata><defs
   id="defs13" /><sodipodi:namedview
   pagecolor="#ffffff"
   bordercolor="#666666"
   borderopacity="1"
   objecttolerance="10"
   gridtolerance="10"
   guidetolerance="10"
   inkscape:pageopacity="0"
   inkscape:pageshadow="2"
   inkscape:window-width="1920"
   inkscape:window-height="1017"
   id="namedview11"
   showgrid="false"
   fit-margin-top="0"
   fit-margin-left="0"
   fit-margin-right="0"
   fit-margin-bottom="0"
   inkscape:pagecheckerboard="true"
   inkscape:zoom="0.26085995"
   inkscape:cx="-54.877435"
   inkscape:cy="452.35"
   inkscape:window-x="-8"
   inkscape:window-y="-8"
   inkscape:window-maximized="1"
   inkscape:current-layer="Layer_2" />
<g
   id="g8"
   transform="matrix(0.8842828,0,0,0.8842828,0.03550375,-0.01066211)">
	<circle
   cx="449.60001"
   cy="712.70001"
   r="192"
   id="circle2" />
	<path
   d="m 229.6,673.7 c 23,-122 98,-153 189.9,-179 0,0 -60.9,-15 -71.9,-71 -11,-56 86.4,-87.9 102,-163 10,-48 -20,-47 -15,-103 5,-56 88,-35 88,-35 0,0 121,26 156,-104 0,0 -52,98 -259.1,-10 -61.8,-32.2 -147.9,33 -161.9,67 -14,34 7.4,85.8 -7,141 -24,92 -129,52 -210,165 -81,113 -24,306 25,368 49,62 200.9,139.5 245,140 6,0.1 -107.4,-75.7 -81,-216 z"
   id="path4"
   inkscape:connector-curvature="0" />
	<path
   d="m 842.6,571.7 c -56,95 -185,49 -185,49 48,188 -70,262 -70,262 296.8,-45 255,-311 255,-311 z"
   id="path6"
   inkscape:connector-curvature="0" />
</g>
</svg>