<?xml version="1.0" encoding="UTF-8" standalone="no"?>
<!-- Generator: Adobe Illustrator 22.1.0, SVG Export Plug-In . SVG Version: 6.00 Build 0)  -->

<svg
   xmlns:dc="http://purl.org/dc/elements/1.1/"
   xmlns:cc="http://creativecommons.org/ns#"
   xmlns:rdf="http://www.w3.org/1999/02/22-rdf-syntax-ns#"
   xmlns:svg="http://www.w3.org/2000/svg"
   xmlns="http://www.w3.org/2000/svg"
   xmlns:sodipodi="http://sodipodi.sourceforge.net/DTD/sodipodi-0.dtd"
   xmlns:inkscape="http://www.inkscape.org/namespaces/inkscape"
   version="1.1"
   id="Layer_3_copy_2"
   x="0px"
   y="0px"
   viewBox="0 0 1055.8431 800.00006"
   xml:space="preserve"
   sodipodi:docname="Kill Team.svg"
   width="1055.8431"
   height="800.00006"
   inkscape:version="0.92.3 (2405546, 2018-03-11)"><metadata
   id="metadata67"><rdf:RDF><cc:Work
       rdf:about=""><dc:format>image/svg+xml</dc:format><dc:type
         rdf:resource="http://purl.org/dc/dcmitype/StillImage" /><dc:title></dc:title></cc:Work></rdf:RDF></metadata><defs
   id="defs65" /><sodipodi:namedview
   pagecolor="#ffffff"
   bordercolor="#666666"
   borderopacity="1"
   objecttolerance="10"
   gridtolerance="10"
   guidetolerance="10"
   inkscape:pageopacity="0"
   inkscape:pageshadow="2"
   inkscape:window-width="1920"
   inkscape:window-height="1017"
   id="namedview63"
   showgrid="false"
   inkscape:pagecheckerboard="true"
   fit-margin-top="0"
   fit-margin-left="0"
   fit-margin-right="0"
   fit-margin-bottom="0"
   inkscape:zoom="0.236"
   inkscape:cx="-43.542374"
   inkscape:cy="362.20004"
   inkscape:window-x="-8"
   inkscape:window-y="-8"
   inkscape:window-maximized="1"
   inkscape:current-layer="Layer_3_copy_2" />
<g
   id="g60"
   transform="matrix(1.0896214,0,0,1.0896214,-17.433942,-139.47154)">
	<path
   d="m 649.9,485 c 30.1,73.3 -8.1,153 -63.1,136 l 1.9,17 h 60.6 L 946.8,182.2 837.4,181.1 Z"
   id="path2"
   inkscape:connector-curvature="0" />
	<polygon
   points="931.9,344.8 985,278.9 893.6,278.9 879.4,299.3 847.9,344.8 849.6,344.8 "
   id="polygon4" />
	<polygon
   points="892.6,424.4 945.7,358.6 841.6,358.6 823,385.3 795.9,424.4 797.3,424.4 "
   id="polygon6" />
	<polygon
   points="789.7,436.1 788.4,436.1 742.8,502 746.4,502 852.2,502 905.3,436.1 "
   id="polygon8" />
	<polygon
   points="696.2,578.5 815,578.5 868.1,512.6 739.5,512.6 738.5,512.6 692.8,578.5 "
   id="polygon10" />
	<polygon
   points="689.6,589.1 675.7,609.8 656.7,638 657.2,638 690.7,638 723.6,589.1 "
   id="polygon12" />
	<polygon
   points="575.9,763.4 527.1,834.6 555.8,834.6 606.8,763.4 "
   id="polygon14" />
	<polygon
   points="435.7,763.4 500.5,862.2 565.3,763.4 "
   id="polygon16" />
	<path
   d="m 412.3,638 1.9,-17 C 351.8,644.4 320.9,527.5 351.1,485 L 163.7,181.1 54.3,182.2 351.8,638 Z"
   id="path18"
   inkscape:connector-curvature="0" />
	<path
   d="m 500.5,232.1 c 141.3,10.6 192.3,95.6 150.9,234.8 L 860.7,128 H 140.3 l 202.9,335.8 c -41.4,-139.2 16,-221 157.3,-231.7 z"
   id="path20"
   inkscape:connector-curvature="0" />
	<polygon
   points="107.4,278.9 16,278.9 69.1,344.8 151.4,344.8 153.1,344.8 121.6,299.3 "
   id="polygon22" />
	<polygon
   points="159.4,358.6 55.3,358.6 108.4,424.4 203.7,424.4 205.1,424.4 178,385.3 "
   id="polygon24" />
	<polygon
   points="95.7,436.1 148.8,502 254.6,502 258.2,502 212.6,436.1 211.3,436.1 "
   id="polygon26" />
	<polygon
   points="261.5,512.6 132.9,512.6 186,578.5 304.8,578.5 308.2,578.5 262.5,512.6 "
   id="polygon28" />
	<polygon
   points="311.4,589.1 277.4,589.1 310.3,638 343.8,638 344.3,638 325.3,609.8 "
   id="polygon30" />
	<polygon
   points="425.1,763.4 394.2,763.4 445.2,834.6 473.9,834.6 "
   id="polygon32" />
	<path
   d="m 710.9,629.5 -6.4,14.9 H 589.8 l 1.1,42.5 h -187 l 4.2,-42.5 H 218.9 c -16.4,12.6 -44.4,20.9 -79.7,26.6 8.6,20.7 24.2,35.5 49.9,41.4 l 511.1,6.4 c 13.9,-4.3 -3.2,66.9 4.2,76.5 24.4,-24.4 18.1,-89.2 18.1,-89.2 7.4,1.1 12.8,-68 6.4,-76.5 h -18 z"
   id="path34"
   inkscape:connector-curvature="0" />
	<path
   d="M 129.7,674.1 84,680.5 c 32.7,38.1 71.9,65.7 125.4,70.1 l 419.7,6.4 12.8,-30.8 -452.6,-6.4 c -22.4,-4.2 -42.6,-17.1 -59.6,-45.7 z"
   id="path36"
   inkscape:connector-curvature="0" />
	<path
   d="m 748.1,652.9 h -4.2 c -3.5,0 -6.4,2.9 -6.4,6.4 v 35.1 c 0,3.5 2.9,6.4 6.4,6.4 h 4.2 c 3.5,0 6.4,-2.9 6.4,-6.4 v -35.1 c -0.1,-3.6 -2.9,-6.4 -6.4,-6.4 z"
   id="path38"
   inkscape:connector-curvature="0" />
	<path
   d="m 774.1,652.9 h -4.2 c -3.5,0 -6.4,2.9 -6.4,6.4 v 35.1 c 0,3.5 2.9,6.4 6.4,6.4 h 4.2 c 3.5,0 6.4,-2.9 6.4,-6.4 v -35.1 c 0,-3.6 -2.9,-6.4 -6.4,-6.4 z"
   id="path40"
   inkscape:connector-curvature="0" />
	<path
   d="m 800.1,652.9 h -4.2 c -3.5,0 -6.4,2.9 -6.4,6.4 v 35.1 c 0,3.5 2.9,6.4 6.4,6.4 h 4.2 c 3.5,0 6.4,-2.9 6.4,-6.4 v -35.1 c 0,-3.6 -2.9,-6.4 -6.4,-6.4 z"
   id="path42"
   inkscape:connector-curvature="0" />
	<path
   d="M 826.2,652.9 H 822 c -3.5,0 -6.4,2.9 -6.4,6.4 v 35.1 c 0,3.5 2.9,6.4 6.4,6.4 h 4.2 c 3.5,0 6.4,-2.9 6.4,-6.4 v -35.1 c -0.1,-3.6 -2.9,-6.4 -6.4,-6.4 z"
   id="path44"
   inkscape:connector-curvature="0" />
	<path
   d="M 852.2,652.9 H 848 c -3.5,0 -6.4,2.9 -6.4,6.4 v 35.1 c 0,3.5 2.9,6.4 6.4,6.4 h 4.2 c 3.5,0 6.4,-2.9 6.4,-6.4 v -35.1 c 0,-3.6 -2.9,-6.4 -6.4,-6.4 z"
   id="path46"
   inkscape:connector-curvature="0" />
	<path
   d="m 909.9,647.7 -37.5,0.9 -6.2,10.5 c -0.1,0.1 -0.2,0.2 -0.2,0.4 v 30.1 c 0,5.1 3.9,9.5 9,10.1 l 9.1,1.1 0.2,2.6 c 0.5,5.1 4.8,9 9.9,9 h 9.7 c 4.9,0 9,-3.9 9.2,-8.8 l 2.5,-50 c 0.2,-3.3 -2.4,-6 -5.7,-5.9 z"
   id="path48"
   inkscape:connector-curvature="0" />
	<path
   d="m 620.7,612 c 6.8,-5.6 56.8,-73 20,-115.5 -9.2,-10.6 36,-89.3 12.2,-158.9 -28,-81.6 -110.6,-94.4 -146.4,-96 0,0 -3.1,-0.2 -8.2,-0.2 -0.1,0 -0.1,0 -0.1,0 -0.1,0 -0.1,0 -0.1,0 -5.3,0 -8.2,0.2 -8.2,0.2 -35.7,1.7 -118.4,14.4 -146.3,96 -23.9,69.7 21.3,148.3 12.2,158.9 -36.8,42.5 13.2,110 20,115.5 12.3,10 51.4,-10.3 45.2,0.2 -4.7,8 -9,68.3 -9,68.3 h 12 l 5.8,-21 10.4,-0.1 2,21.1 h 21.1 l 2,-20.1 7,-1 1,21.1 h 17.1 l 0.8,-21.7 h 13.9 l 0.8,21.7 H 523 l 1,-21.1 7,1 2,20.1 h 21.1 l 2,-21.1 10.4,0.1 5.8,21 h 12.1 c 0,0 -4.3,-60.3 -9,-68.3 -6,-10.5 33,9.8 45.3,-0.2 z m -2.3,-137.3 c 5.9,0 10.6,4.8 10.6,10.6 0,5.9 -4.8,10.6 -10.6,10.6 -5.8,0 -10.6,-4.8 -10.6,-10.6 0,-5.8 4.8,-10.6 10.6,-10.6 z M 498.2,341.6 c 7.6,0 13.8,6.2 13.8,13.8 0,7.6 -6.2,13.8 -13.8,13.8 -7.6,0 -13.8,-6.2 -13.8,-13.8 0,-7.6 6.2,-13.8 13.8,-13.8 z m 14.5,69 c 0,7 -5.7,12.8 -12.7,12.8 -7,0 -12.8,-5.7 -12.8,-12.8 0,-7 5.7,-12.8 12.8,-12.8 7.1,0 12.7,5.8 12.7,12.8 z M 370.9,496 c -5.9,0 -10.6,-4.8 -10.6,-10.6 0,-5.9 4.8,-10.6 10.6,-10.6 5.8,0 10.6,4.8 10.6,10.6 0,5.8 -4.8,10.6 -10.6,10.6 z m 60.5,80.4 c -29.3,0 -53.1,-23.8 -53.1,-53.1 0,-29.3 23.8,-53.1 53.1,-53.1 29.3,0 53.1,23.8 53.1,53.1 0.1,29.3 -23.7,53.1 -53.1,53.1 z m 91.2,37.8 c -0.1,1.4 -1.8,1.9 -2.7,0.9 -2.1,-2.7 -5.1,-5.8 -9,-8.7 -4.2,-3.1 -8.2,-5 -11.3,-6.1 -3.1,1.1 -7.1,3.1 -11.3,6.1 -3.9,2.9 -6.8,6 -9,8.7 -0.9,1.1 -2.6,0.5 -2.7,-0.9 -0.7,-10.3 -0.2,-31.4 15.3,-46.7 2,-2 4.6,-3.7 7.6,-5.4 3,1.7 5.6,3.4 7.6,5.4 15.7,15.4 16.2,36.5 15.5,46.7 z m 20,-56.7 c -9.4,-5.3 -16.3,-11.6 -21.1,-17 -1.8,-2.1 -1.3,-5.3 1.2,-6.5 9.7,-5.1 21.5,-10.3 35.4,-14.6 17.2,-5.4 32.7,-7.8 45.1,-9 0.6,-0.1 1.2,0 1.8,0.3 10.3,3.8 13.6,10 14.6,11.8 5.8,12.2 -1.7,31.7 -21.5,44.1 -0.5,0.3 -1.1,0.5 -1.7,0.6 -9,1.2 -31.2,3 -53.8,-9.7 z"
   id="path50"
   inkscape:connector-curvature="0" />
	<circle
   cx="498.39999"
   cy="355.39999"
   r="6.4000001"
   id="circle52" />
	<circle
   cx="618.40002"
   cy="485"
   r="6.4000001"
   id="circle54" />
	<circle
   cx="370.89999"
   cy="485"
   r="6.4000001"
   id="circle56" />
	<circle
   cx="431.39999"
   cy="523.20001"
   r="39.299999"
   id="circle58" />
</g>
</svg>