<?xml version="1.0" encoding="UTF-8" standalone="no"?>
<!-- Created with Inkscape (http://www.inkscape.org/) -->

<svg
   xmlns:dc="http://purl.org/dc/elements/1.1/"
   xmlns:cc="http://creativecommons.org/ns#"
   xmlns:rdf="http://www.w3.org/1999/02/22-rdf-syntax-ns#"
   xmlns:svg="http://www.w3.org/2000/svg"
   xmlns="http://www.w3.org/2000/svg"
   xmlns:sodipodi="http://sodipodi.sourceforge.net/DTD/sodipodi-0.dtd"
   xmlns:inkscape="http://www.inkscape.org/namespaces/inkscape"
   width="643.90558"
   height="800"
   viewBox="0 0 170.36669 211.66667"
   version="1.1"
   id="svg8"
   inkscape:version="0.92.3 (2405546, 2018-03-11)"
   sodipodi:docname="Aeldari [Eldar, Eye of Asuryan, Gods].svg">
  <defs
     id="defs2">
    <clipPath
       id="clipEmfPath1"
       clipPathUnits="userSpaceOnUse">
      <path
         id="path815"
         d="M 0,0 H 408.85669 V 440.22677 H 0 Z"
         inkscape:connector-curvature="0" />
    </clipPath>
    <clipPath
       id="clipEmfPath2"
       clipPathUnits="userSpaceOnUse">
      <path
         id="path818"
         d="M 2.7753906,2.7792969 V 440.22656 H 408.85742 V 2.7792969 Z"
         inkscape:connector-curvature="0" />
    </clipPath>
    <pattern
       y="0"
       x="0"
       height="6"
       width="6"
       patternUnits="userSpaceOnUse"
       id="EMFhbasepattern" />
  </defs>
  <sodipodi:namedview
     id="base"
     pagecolor="#ffffff"
     bordercolor="#666666"
     borderopacity="1.0"
     inkscape:pageopacity="0.0"
     inkscape:pageshadow="2"
     inkscape:zoom="0.7"
     inkscape:cx="241.89148"
     inkscape:cy="218.25921"
     inkscape:document-units="px"
     inkscape:current-layer="layer1"
     showgrid="false"
     inkscape:pagecheckerboard="true"
     fit-margin-top="0"
     fit-margin-left="0"
     fit-margin-right="0"
     fit-margin-bottom="0"
     inkscape:window-width="1920"
     inkscape:window-height="1017"
     inkscape:window-x="-8"
     inkscape:window-y="-8"
     inkscape:window-maximized="1"
     units="px" />
  <metadata
     id="metadata5">
    <rdf:RDF>
      <cc:Work
         rdf:about="">
        <dc:format>image/svg+xml</dc:format>
        <dc:type
           rdf:resource="http://purl.org/dc/dcmitype/StillImage" />
        <dc:title></dc:title>
      </cc:Work>
    </rdf:RDF>
  </metadata>
  <g
     inkscape:label="Layer 1"
     inkscape:groupmode="layer"
     id="layer1"
     transform="translate(-63.438636,-177.78307)">
    <g
       id="g824"
       clip-path="url(#clipEmfPath1)"
       transform="matrix(0.18996412,0,0,0.18996412,55.677114,175.11863)" />
    <path
       style="opacity:1;fill:#000000;fill-opacity:1;stroke:none;stroke-width:0.35282427;stroke-linecap:round;stroke-linejoin:round;stroke-miterlimit:4;stroke-dasharray:none;stroke-opacity:0.45116278;paint-order:normal"
       d="m 148.62257,177.78307 -43.69648,75.68368 -40.349975,-2.69501 v 20.39715 l 30.81387,-1.18491 -31.951349,55.3409 h 29.07929 l -12.96939,18.20897 17.98682,10.36811 13.686824,-28.57708 h 28.9358 v 64.12486 h 16.928 v -64.12486 h 28.93581 l 13.68799,28.57708 17.98565,-10.36811 -12.9694,-18.20897 h 29.0793 l -31.95136,-55.3409 30.8139,1.18491 v -20.39715 l -40.35002,2.69501 z m 0,30.97471 20.81834,36.05925 a 41.594222,24.836837 0 0 0 -20.81834,-3.37081 41.594222,24.836837 0 0 0 -20.8126,3.35923 z m 12.67545,42.93274 a 30.816209,17.327654 0 0 1 18.14072,15.77663 30.816209,17.327654 0 0 1 -30.81617,17.3284 30.816209,17.327654 0 0 1 -30.81734,-17.3284 30.816209,17.327654 0 0 1 18.12451,-15.76507 13.753607,13.753607 0 0 0 -1.06111,5.29051 13.753607,13.753607 0 0 0 13.75394,13.75394 13.753607,13.753607 0 0 0 13.75277,-13.75394 13.753607,13.753607 0 0 0 -1.07732,-5.30207 z m -51.23648,23.85589 a 41.594222,24.836837 0 0 0 8.56179,7.89295 l -7.1246,15.2374 -4.91328,6.89782 H 92.725056 Z m 77.1255,0.007 17.33186,30.02122 h -13.86041 l -4.91327,-6.89781 -7.11533,-15.22005 a 41.594222,24.836837 0 0 0 8.55715,-7.90336 z m -55.90906,13.26215 a 41.594222,24.836837 0 0 0 8.88,1.74035 v 15.01872 H 120.6819 l 0.97317,-2.03196 z m 34.69148,0.007 9.61828,14.72133 0.97317,2.03196 h -19.47493 v -14.99673 a 41.594222,24.836837 0 0 0 8.88348,-1.75656 z"
       id="path833"
       inkscape:connector-curvature="0" />
  </g>
</svg>
