<?xml version="1.0" encoding="UTF-8" standalone="no"?>
<!-- Generator: Adobe Illustrator 22.1.0, SVG Export Plug-In . SVG Version: 6.00 Build 0)  -->

<svg
   xmlns:dc="http://purl.org/dc/elements/1.1/"
   xmlns:cc="http://creativecommons.org/ns#"
   xmlns:rdf="http://www.w3.org/1999/02/22-rdf-syntax-ns#"
   xmlns:svg="http://www.w3.org/2000/svg"
   xmlns="http://www.w3.org/2000/svg"
   xmlns:sodipodi="http://sodipodi.sourceforge.net/DTD/sodipodi-0.dtd"
   xmlns:inkscape="http://www.inkscape.org/namespaces/inkscape"
   version="1.1"
   id="Layer_2_copy"
   x="0px"
   y="0px"
   viewBox="0 0 795.22064 800"
   xml:space="preserve"
   sodipodi:docname="Skitarii [Imperium, Adeptus Mechanicus].svg"
   width="795.22064"
   height="800"
   inkscape:version="0.92.3 (2405546, 2018-03-11)"><metadata
   id="metadata29"><rdf:RDF><cc:Work
       rdf:about=""><dc:format>image/svg+xml</dc:format><dc:type
         rdf:resource="http://purl.org/dc/dcmitype/StillImage" /><dc:title></dc:title></cc:Work></rdf:RDF></metadata><defs
   id="defs27" /><sodipodi:namedview
   pagecolor="#ffffff"
   bordercolor="#666666"
   borderopacity="1"
   objecttolerance="10"
   gridtolerance="10"
   guidetolerance="10"
   inkscape:pageopacity="0"
   inkscape:pageshadow="2"
   inkscape:window-width="1920"
   inkscape:window-height="1017"
   id="namedview25"
   showgrid="false"
   fit-margin-top="0"
   fit-margin-left="0"
   fit-margin-right="0"
   fit-margin-bottom="0"
   inkscape:pagecheckerboard="true"
   inkscape:zoom="0.236"
   inkscape:cx="-60.542373"
   inkscape:cy="485"
   inkscape:window-x="-8"
   inkscape:window-y="-8"
   inkscape:window-maximized="1"
   inkscape:current-layer="Layer_2_copy" />
<g
   id="g22"
   transform="matrix(0.83848653,0,0,0.83848653,-27.670055,-25.909234)">
	<polygon
   points="642.4,811 682.7,919.9 696.8,944.3 776.7,898.2 "
   id="polygon2" />
	<path
   d="M 313.5,941.9 362.1,773.3 C 267.5,721.8 203.3,621.5 203.3,506.2 c 0,-50.3 12.2,-97.8 33.9,-139.6 l -65.4,-50.2 110.9,-20.6 -81.6,-63.1 c -6.5,7.4 -12.7,15 -18.6,22.8 l -58.6,-33.8 -54.3,94 59.5,34.4 c -12.8,32 -21.6,66 -25.8,101.4 H 33 V 560 h 71.7 c 5.1,34.7 14.5,68 27.8,99.3 l -63.4,36.6 54.3,94 64.5,-37.3 c 21.1,26.7 45.5,50.7 72.5,71.3 l -37.8,65.5 z"
   id="path4"
   inkscape:connector-curvature="0" />
	<path
   d="M 981.4,561.1 V 452.6 H 911.2 C 907,417.2 898.3,383.2 885.7,351.1 l 59.6,-34.4 -54.3,-94 -58.4,33.7 c -21.3,-28.3 -46.2,-53.8 -74.1,-75.7 l 33.3,-57.6 -94,-54.3 -32.8,56.7 C 632.6,111.9 598.1,102.3 562,97.4 V 32.1 H 453.5 v 65.2 c -27.3,3.6 -53.8,9.9 -79.2,18.7 l 81.6,57.4 -66.1,29.7 24.6,13.7 c 19.3,-6.2 39.5,-10.5 60.3,-12.7 l 18.8,-30.4 9.8,6.6 c 15.2,10.2 26,17.8 33.9,23.5 153.8,15.1 273.9,144.7 273.9,302.5 0,36.9 -6.6,72.3 -18.7,105.1 l 60.2,89.9 -108.2,-5 c -6.9,8.6 -14.2,16.8 -21.9,24.5 l 56.5,82.4 c 16.9,-15.2 32.6,-31.8 46.7,-49.6 l 64.7,37.3 54.3,-94 -63.3,-36.6 c 13.4,-31.2 22.9,-64.5 28.1,-99.2 z"
   id="path6"
   inkscape:connector-curvature="0" />
	<path
   d="m 830.5,689.1 -88,-131.4 -86.8,58.3 -57.1,-49.1 81.1,-88 -10.3,-10.3 -85.7,86.8 L 524.3,509.7 610,408 509.5,346.3 558.6,256 l -9.1,-4.6 -56,85.7 -78.8,-48 29.7,-42.3 -80,-44.6 L 433,171.3 233,30.9 121,156.6 309.9,302.7 199.1,323.3 300.4,401.2 386.1,296 556.3,411.4 C 540.1,449 470.3,459.2 423.8,440 L 385,496 c 66.5,44.2 130.8,94.8 189.7,162.2 -42.8,-0.5 -82.5,1.9 -112,13.7 L 859.2,940.4 682,682.2 Z"
   id="path8"
   inkscape:connector-curvature="0" />
	<polygon
   points="624.9,568 658,597.7 779.1,512 724.3,466.3 "
   id="polygon10" />
	<polygon
   points="672.9,349.7 548.3,504 584.9,531.4 727.7,396.6 "
   id="polygon12" />
	<polygon
   points="595.2,379.4 648.9,286.9 586,245.7 531.2,339.4 "
   id="polygon14" />
	<path
   d="m 548.3,227.5 c -2.3,-4.6 -51.4,-37.7 -51.4,-37.7 l -59.4,96 50.3,36.6 c 0,-0.1 62.8,-90.4 60.5,-94.9 z"
   id="path16"
   inkscape:connector-curvature="0" />
	<polygon
   points="632.9,818.2 538,748.5 524.3,985 694.6,985 "
   id="polygon18" />
	<path
   d="M 534.6,642.2 C 480.9,584.1 421.6,536.8 355.2,502.8 L 420.3,424 c 44.6,21.7 73.8,24.8 117.7,-4.6 L 389.5,315.4 244.4,509.7 386.1,731.4 312.9,985 h 171.4 l 12.6,-267.4 -72,-59.4 c 32.2,-11.4 68,-17.9 109.7,-16 z"
   id="path20"
   inkscape:connector-curvature="0" />
</g>
</svg>