<?xml version="1.0" encoding="UTF-8" standalone="no"?>
<!-- Generator: Adobe Illustrator 21.0.2, SVG Export Plug-In . SVG Version: 6.00 Build 0)  -->

<svg
   xmlns:dc="http://purl.org/dc/elements/1.1/"
   xmlns:cc="http://creativecommons.org/ns#"
   xmlns:rdf="http://www.w3.org/1999/02/22-rdf-syntax-ns#"
   xmlns:svg="http://www.w3.org/2000/svg"
   xmlns="http://www.w3.org/2000/svg"
   xmlns:sodipodi="http://sodipodi.sourceforge.net/DTD/sodipodi-0.dtd"
   xmlns:inkscape="http://www.inkscape.org/namespaces/inkscape"
   version="1.1"
   id="Layer_1"
   x="0px"
   y="0px"
   viewBox="0 0 589.2498 799.99999"
   xml:space="preserve"
   sodipodi:docname="Skull.svg"
   width="589.24982"
   height="800"
   inkscape:version="0.92.3 (2405546, 2018-03-11)"><metadata
   id="metadata9"><rdf:RDF><cc:Work
       rdf:about=""><dc:format>image/svg+xml</dc:format><dc:type
         rdf:resource="http://purl.org/dc/dcmitype/StillImage" /><dc:title></dc:title></cc:Work></rdf:RDF></metadata><defs
   id="defs7" /><sodipodi:namedview
   pagecolor="#ffffff"
   bordercolor="#666666"
   borderopacity="1"
   objecttolerance="10"
   gridtolerance="10"
   guidetolerance="10"
   inkscape:pageopacity="0"
   inkscape:pageshadow="2"
   inkscape:window-width="1920"
   inkscape:window-height="1017"
   id="namedview5"
   showgrid="false"
   fit-margin-top="0"
   fit-margin-left="0"
   fit-margin-right="0"
   fit-margin-bottom="0"
   inkscape:pagecheckerboard="true"
   inkscape:zoom="0.35719691"
   inkscape:cx="-105.20409"
   inkscape:cy="330.34999"
   inkscape:window-x="-8"
   inkscape:window-y="-8"
   inkscape:window-maximized="1"
   inkscape:current-layer="Layer_1" />
<path
   d="M 576.47121,175.3292 C 525.49497,26.63841 374.98793,3.39034 309.8449,0.36325 v 0 c 0,0 -5.56985,-0.36325 -15.01437,-0.36325 -0.12109,0 -0.12109,0 -0.24217,0 -0.12109,0 -0.12109,0 -0.24217,0 -9.56561,0 -15.01438,0.36325 -15.01438,0.36325 v 0 C 214.30987,3.39034 63.681744,26.63841 12.82659,175.3292 -30.642458,302.22491 51.694457,445.58801 34.984907,464.84032 -31.974379,542.33389 59.080563,665.23384 71.4311,675.28379 c 22.400485,18.28364 93.5977,-18.76797 82.33692,0.36325 C 145.29216,690.17708 137.42172,800 137.42172,800 h 22.03723 l 10.53428,-38.26245 18.88906,-0.24217 L 192.5148,800 h 38.50462 l 3.63251,-36.68836 12.83487,-1.81626 L 249.30305,800 h 31.2396 l 1.453,-39.47329 h 25.3065 L 308.75515,800 h 31.23959 l 1.81626,-38.50462 12.83487,1.81626 L 358.27838,800 H 396.783 l 3.63251,-38.50462 18.88906,0.24217 L 429.83885,800 h 22.03723 c 0,0 -7.87044,-109.82292 -16.3463,-124.35296 -11.26078,-19.13122 59.93643,17.7993 82.33692,-0.36325 12.47162,-10.17103 103.40548,-132.9499 36.44619,-210.44347 -16.70955,-19.37339 65.50628,-162.73649 22.15832,-289.51112 z M 253.17773,544.99773 c -8.71802,9.80778 -21.31073,21.43181 -38.38353,30.99743 -41.04737,23.12698 -81.7315,19.85772 -98.19888,17.55713 -1.08975,-0.12108 -2.17951,-0.48433 -3.02709,-1.08975 -35.961861,-22.76374 -49.644319,-58.24126 -38.988954,-80.39958 1.574089,-3.39034 7.628274,-14.53004 26.517334,-21.43181 1.08975,-0.36325 2.1795,-0.48434 3.26926,-0.48434 22.76373,2.05843 50.97623,6.53852 82.21583,16.3463 25.30649,7.87044 46.85939,17.43606 64.53761,26.63842 4.35901,2.30059 5.32768,8.11261 2.05842,11.8662 z m 85.96943,134.28182 c -0.12108,2.54276 -3.26926,3.51143 -4.84335,1.57409 -3.87468,-4.96443 -9.20236,-10.65537 -16.3463,-15.86196 -7.62827,-5.56985 -14.89329,-9.08128 -20.58423,-11.1397 -5.56985,2.05842 -12.95595,5.56985 -20.58423,11.1397 -7.14393,5.20659 -12.47162,10.89753 -16.3463,15.86196 -1.57408,1.93734 -4.72226,0.96867 -4.84334,-1.57409 -1.21084,-18.76797 -0.36325,-57.1515 27.84925,-85.00075 3.63251,-3.63252 8.35477,-6.78069 13.92462,-9.80778 5.44877,3.02709 10.29212,6.17526 13.92463,9.80778 28.2125,27.84925 29.06009,66.35386 27.84925,85.00075 z m 137.55108,-86.81701 c -0.96867,0.60542 -1.93734,0.96867 -3.02709,1.08975 -16.46738,2.30059 -57.03042,5.56985 -98.19888,-17.55713 -17.0728,-9.56562 -29.66551,-21.18965 -38.38353,-30.99743 -3.26926,-3.75359 -2.30059,-9.56561 2.1795,-11.8662 17.67822,-9.20236 39.23112,-18.76798 64.53761,-26.63842 31.36068,-9.80778 59.57318,-14.28787 82.21584,-16.3463 1.08975,-0.12108 2.1795,0 3.26926,0.48434 18.76797,6.90177 24.82215,18.16255 26.51733,21.43181 10.53428,22.15832 -3.14818,57.75693 -39.11004,80.39958 z"
   id="path2"
   inkscape:connector-curvature="0"
   style="stroke-width:1.21083701" />
</svg>