<?xml version="1.0" encoding="UTF-8"?>
<!-- Generator: Adobe Illustrator 24.0.1, SVG Export Plug-In . SVG Version: 6.00 Build 0)  -->
<svg version="1.1" id="Layer_3_copy" xmlns="http://www.w3.org/2000/svg" xmlns:xlink="http://www.w3.org/1999/xlink" x="0px" y="0px" viewBox="0 0 1000 1000" style="enable-background:new 0 0 1000 1000;" xml:space="preserve"><script xmlns="" id="__gaOptOutExtension"/>
<g>
	<path d="M339.5,508.36l-23.51,8.68l-7.52-8.98l-51,18.82c0,0-1.53,6.99-3.29,14.65l-21.91,8.09l4.09,11.09l14.49-5.35   c-0.17,0.67-0.34,1.29-0.49,1.86l-37.11,13.7l3.29,10.1l-36.61,14.64l-4.31-5.36c-19.22,7.09-86.85,32.43-88.76,27.26l-13.62,4.25   c14.13,36.77,26.66,82.47,40.79,119.24l17.78-8.37l11.51-6.28c-6.39-16.39,13.6-72.17,32.19-80.26l57.16-22.6l1.03,2.8l3.7-1.36   l3,8.13c17.02-1.05,25.9,2.45,28.91,7.8c11.7,38.51-8.7,24.21,7.09,73.81c21.05,5.51,41.49,9.3,60.9,10.27l0.69-9.49L320,705.36   c-7.6-27.43-14-56.14,1.63-66.11l-1.09-2.96l31.04-11.46l6.31,3.45l7.94,21.52l5.91-2.18l16.64,45.09l8.13-3l1.36,3.7l60.61-22.37   l-1.36-3.7l2.96-1.09l-16.64-45.09l5.17-1.91l-12.55-34l55.88-20.62L339.5,508.36z M345.16,618.81l-23.65,8.73l8.24-7.24   l-0.55-1.48c-8.64-5.21-14.05-10.77-6.72-21.03l21.26-7.85l4.4,11.93L345.16,618.81z"/>
	<path d="M783.49,430.4l-4.18-8.37l-7.32,3.14v7.32c0,0-34.11,12.4-46.94,17.86c-0.48-1.05-0.96-2.09-1.47-3.12l-16.26,6   l-7.37-19.96l11.09-4.09l3.55,9.61l56.91-21.01l4.9-12.73l14.46-5.34c-0.26-4.46-2.55-12.16-5.27-18.53l7.78-20.19l-94.61,34.92   l2.73,7.39l-22.46,8.29l-3.8-11.19L571,438.87l-0.55-1.48l11.83-4.37l-4.09-11.09l-11.83,4.37l-2.73-7.39l-59.13,21.83l-2.07,4.07   l1.06,2.08l127.83,47.18l0.37-1.01l1.81-4.91l4.91,1.81l4.43,1.64l2.63,0.97l0.65,2.72l0.67,2.8l12.7,4.69l8.51-3.14l3.73,2.82   l5.17-1.91l3.85,3.62l26.61-9.82c0,0,0.07-12.91-0.05-18.46l23.61-8.71c-0.12-0.49-0.26-0.97-0.39-1.46l45.62-16.5l9.41,9.41   l5.23-3.14l-2.09-8.37l14.64,5.23l127.61-44.98c21.61-10.87,36.18-29.11,46.02-52.3L783.49,430.4z"/>
	<path d="M823.37,590.31l-4.31,5.36l-36.61-14.64l3.29-10.1l-37.11-13.7c-0.16-0.57-0.32-1.2-0.49-1.86l14.49,5.35l4.09-11.09   l-21.91-8.09c-1.76-7.66-3.29-14.65-3.29-14.65l-51-18.82l-7.52,8.98l-40.65-15l-1.32-5.53l-4.43-1.64l-2.18,5.91l-134.66-49.7   l-5.27-10.34l-59.13-21.83l-2.73,7.39l-11.83-4.37l-4.09,11.09l11.83,4.37l-0.55,1.48l-104.22-38.47l-3.8,11.19l-22.46-8.29   l2.73-7.39L205.64,361l7.78,20.19c-2.72,6.37-5.01,14.07-5.27,18.53l14.46,5.34l4.9,12.73l56.91,21.01l3.55-9.61l11.09,4.09   l-7.37,19.96l-16.26-6c-0.51,1.03-1,2.07-1.47,3.12c-12.83-5.45-46.94-17.86-46.94-17.86v-7.32l-7.32-3.14l-4.18,8.37L22,355.08   c9.84,23.19,24.42,41.43,46.02,52.3l127.61,44.98l14.64-5.23l-2.09,8.37l5.23,3.14l9.41-9.41l45.62,16.5   c-0.13,0.49-0.26,0.97-0.39,1.46l23.61,8.71c-0.11,5.55-0.05,18.46-0.05,18.46l26.61,9.82l3.85-3.62l5.17,1.91l3.73-2.82   l231.94,85.61l-12.55,34l5.17,1.91l-16.64,45.09l2.96,1.09l-1.36,3.7l60.61,22.37l1.36-3.7l8.13,3l16.64-45.09l5.91,2.18   l7.94-21.52l6.31-3.45l31.04,11.46l-1.09,2.96c15.64,9.97,9.24,38.68,1.63,66.11l-18.02,10.14l0.69,9.49   c19.41-0.97,39.85-4.77,60.9-10.27c15.79-49.6-4.61-35.29,7.09-73.81c3.02-5.35,11.89-8.86,28.91-7.8l3-8.13l3.7,1.36l1.03-2.8   l57.16,22.6c18.59,8.09,38.59,63.87,32.19,80.26l11.51,6.28l17.78,8.37c14.13-36.77,26.66-82.47,40.79-119.24l-13.62-4.25   C910.22,622.74,842.58,597.4,823.37,590.31z M629.78,513.35l-30.3-11.19l-14.78-5.46l-75.98-28.04l-1.05-2.07l122.66,45.28   L629.78,513.35z M669.79,618.82l-0.55,1.48l8.24,7.24l-23.65-8.73l-2.99-16.94l4.4-11.93l21.26,7.85   C683.85,608.05,678.43,613.61,669.79,618.82z"/>
</g>
</svg>